<svg viewBox="0 0 64 64" xmlns="http://www.w3.org/2000/svg" color="#ece8e1">
  <!-- Panproto mark: monochrome (currentColor) -->
  <rect x="2" y="8" width="60" height="3" rx="1" fill="currentColor" opacity="0.4"/>
  <rect x="2" y="53" width="60" height="3" rx="1" fill="currentColor" opacity="0.4"/>
  <rect x="4" y="11" width="10" height="42" fill="currentColor" opacity="0.7"/>
  <rect x="16" y="11" width="14" height="42" fill="currentColor" opacity="0.7"/>
  <rect x="32" y="11" width="8" height="42" fill="currentColor" opacity="0.7"/>
  <rect x="42" y="11" width="18" height="42" fill="currentColor" opacity="0.7"/>
  <circle cx="9" cy="20" r="1.5" fill="currentColor" opacity="0.15"/>
  <circle cx="9" cy="30" r="1.5" fill="currentColor" opacity="0.15"/>
  <circle cx="9" cy="46" r="1.5" fill="currentColor" opacity="0.15"/>
  <circle cx="23" cy="20" r="1.5" fill="currentColor" opacity="0.15"/>
  <circle cx="20" cy="36" r="1.5" fill="currentColor" opacity="0.15"/>
  <circle cx="26" cy="36" r="1.5" fill="currentColor" opacity="0.15"/>
  <circle cx="23" cy="46" r="1.5" fill="currentColor" opacity="0.15"/>
  <circle cx="36" cy="20" r="1.5" fill="currentColor" opacity="0.15"/>
  <circle cx="36" cy="36" r="1.5" fill="currentColor" opacity="0.15"/>
  <circle cx="48" cy="20" r="1.5" fill="currentColor" opacity="0.15"/>
  <circle cx="54" cy="20" r="1.5" fill="currentColor" opacity="0.15"/>
  <circle cx="48" cy="36" r="1.5" fill="currentColor" opacity="0.15"/>
  <circle cx="54" cy="36" r="1.5" fill="currentColor" opacity="0.15"/>
  <circle cx="51" cy="46" r="1.5" fill="currentColor" opacity="0.15"/>
  <path d="M 9 46 C 14 58 30 58 36 36" stroke="currentColor" stroke-width="1.8" fill="none" stroke-linecap="round"/>
  <path d="M 26 36 C 31 50 43 50 48 36" stroke="currentColor" stroke-width="1.8" fill="none" stroke-linecap="round"/>
</svg>
